<svg width="289" height="107" viewBox="0 0 289 107" fill="none" xmlns="http://www.w3.org/2000/svg">
<path d="M54.216 90.024C46.6213 90.024 40.0933 88.4027 34.632 85.16C29.1707 81.832 24.9893 77.3947 22.088 71.848C19.1867 66.3013 17.736 60.2 17.736 53.544C17.736 46.8027 19.1867 40.7013 22.088 35.24C24.9893 29.6933 29.1707 25.2987 34.632 22.056C40.0933 18.728 46.6213 17.064 54.216 17.064C59.7627 17.064 64.7547 18.0027 69.192 19.88C73.6293 21.672 77.384 24.1893 80.456 27.432L77.768 30.12C74.952 27.304 71.5813 25.0853 67.656 23.464C63.7307 21.8427 59.2507 21.032 54.216 21.032C47.3893 21.032 41.5013 22.5253 36.552 25.512C31.688 28.4133 27.976 32.3387 25.416 37.288C22.856 42.152 21.576 47.5707 21.576 53.544C21.576 59.5173 22.856 64.9787 25.416 69.928C27.976 74.792 31.688 78.7173 36.552 81.704C41.5013 84.6053 47.3893 86.056 54.216 86.056C59.2507 86.056 63.7307 85.2453 67.656 83.624C71.5813 82.0027 74.952 79.784 77.768 76.968L80.456 79.656C77.384 82.8133 73.6293 85.3307 69.192 87.208C64.7547 89.0853 59.7627 90.024 54.216 90.024ZM54.216 98.472C47.3893 98.472 41.2027 97.32 35.656 95.016C30.1947 92.6267 25.4587 89.384 21.448 85.288C17.5227 81.192 14.4933 76.456 12.36 71.08C10.312 65.6187 9.288 59.7733 9.288 53.544C9.288 47.3147 10.312 41.512 12.36 36.136C14.4933 30.6747 17.5227 25.896 21.448 21.8C25.4587 17.6187 30.1947 14.376 35.656 12.072C41.2027 9.768 47.3893 8.616 54.216 8.616C60.9573 8.616 67.016 9.768 72.392 12.072C77.8533 14.2907 82.5467 17.4053 86.472 21.416L83.656 24.232C80.1573 20.5627 75.8907 17.704 70.856 15.656C65.9067 13.608 60.36 12.584 54.216 12.584C45.8533 12.584 38.5573 14.4187 32.328 18.088C26.184 21.7573 21.448 26.7067 18.12 32.936C14.792 39.08 13.128 45.9493 13.128 53.544C13.128 61.0533 14.792 67.9227 18.12 74.152C21.448 80.3813 26.184 85.3307 32.328 89C38.5573 92.6693 45.8533 94.504 54.216 94.504C60.36 94.504 65.9067 93.48 70.856 91.432C75.8907 89.384 80.1573 86.5253 83.656 82.856L86.472 85.672C82.5467 89.5973 77.8533 92.712 72.392 95.016C67.016 97.32 60.9573 98.472 54.216 98.472ZM54.216 106.92C46.1947 106.92 38.8987 105.555 32.328 102.824C25.8427 100.008 20.2533 96.168 15.56 91.304C10.8667 86.44 7.24 80.808 4.68 74.408C2.12 67.9227 0.84 60.968 0.84 53.544C0.84 46.12 2.12 39.208 4.68 32.808C7.24 26.3227 10.8667 20.648 15.56 15.784C20.2533 10.92 25.8427 7.12267 32.328 4.392C38.8987 1.57599 46.1947 0.167992 54.216 0.167992C62.0667 0.167992 69.2347 1.53333 75.72 4.26399C82.2053 6.90933 87.7947 10.6213 92.488 15.4L89.8 18.088C85.448 13.736 80.2427 10.3227 74.184 7.84799C68.2107 5.28799 61.5547 4.008 54.216 4.008C46.7067 4.008 39.9227 5.28799 33.864 7.84799C27.8053 10.408 22.6 13.9493 18.248 18.472C13.896 22.9947 10.5253 28.2853 8.136 34.344C5.832 40.3173 4.68 46.7173 4.68 53.544C4.68 60.3707 5.832 66.8133 8.136 72.872C10.5253 78.8453 13.896 84.0933 18.248 88.616C22.6 93.1387 27.8053 96.68 33.864 99.24C39.9227 101.8 46.7067 103.08 54.216 103.08C61.5547 103.08 68.2107 101.843 74.184 99.368C80.2427 96.808 85.448 93.352 89.8 89L92.488 91.688C87.7947 96.3813 82.2053 100.093 75.72 102.824C69.2347 105.555 62.0667 106.92 54.216 106.92ZM105.365 5.92799V2.088H184.853V5.92799H105.365ZM105.365 14.376V10.536H184.853V14.376H105.365ZM105.365 22.824V18.984H184.853V22.824H105.365ZM151.701 105V26.92H155.541V105H151.701ZM134.805 105V26.92H138.645V105H134.805ZM143.253 105V26.92H147.093V105H143.253ZM240.997 36.392L238.565 33.192L261.093 2.088H265.829L240.997 36.392ZM246.373 43.304L243.941 40.104L271.589 2.088H276.325L246.373 43.304ZM251.749 50.216L249.317 47.016L282.085 2.088H286.821L251.749 50.216ZM218.341 105V2.088H222.181V105H218.341ZM201.445 105V2.088H205.285V105H201.445ZM209.893 105V2.088H213.733V105H209.893ZM283.237 105L233.317 40.36L235.749 37.16L288.101 105H283.237ZM272.613 105L228.197 47.528L230.629 44.2L277.477 105H272.613ZM261.861 105L223.077 54.696L225.381 51.496L266.725 105H261.861Z" fill="#223441"/>
</svg>
